<svg fill="#000000" xmlns="http://www.w3.org/2000/svg"  viewBox="0 0 30 30" width="30px" height="30px"><path d="M22.575,8.045c0,0-2.308,0.437-4.587,0.719c-0.774,0.096-1.305-0.76-0.877-1.413c0.507-0.774,0.977-1.567,0.875-2.645c-0.118-1.251-1.053-2.345-2.277-2.625C13.744,1.631,12,3.112,12,5c0,0.935,0.432,1.653,0.893,2.357c0.426,0.65-0.109,1.503-0.881,1.407C9.733,8.482,7.425,8.045,7.425,8.045L5,10l0,4.826c0,0.91,1.007,1.476,1.772,0.983c0.733-0.473,1.495-0.889,2.511-0.796c1.255,0.114,2.355,1.05,2.637,2.278C12.368,19.256,10.888,21,9,21c-0.87,0-1.553-0.374-2.211-0.798C6.016,19.704,5,20.25,5,21.169l0,2.398C5,25.109,5.895,26,7,26h8h8c1.105,0,2-0.895,2-2V10L22.575,8.045z"/><path d="M23 8A2 2 0 1 0 23 12 2 2 0 1 0 23 8zM7 8A2 2 0 1 0 7 12 2 2 0 1 0 7 8z"/></svg>